<svg height="512pt" viewBox="-108 0 512 512" width="512pt" xmlns="http://www.w3.org/2000/svg"><path d="m272.683594 59.167969h-249.410156v-46.667969c0-2.761719 2.238281-5 5-5h239.410156c2.761718 0 5 2.238281 5 5zm0 0" fill="#e8dacd"/><path d="m272.683594 59.167969h-18.71875v-51.667969h13.71875c2.761718 0 5 2.238281 5 5zm0 0" fill="#e5ccb7"/><path d="m272.402344 59.167969h-248.847656l-16.050782 440.148437c-.101562 2.832032 2.164063 5.183594 4.996094 5.183594h90.609375c2.542969 0 4.683594-1.910156 4.96875-4.4375l39.898437-351.6875 39.902344 351.6875c.285156 2.527344 2.425782 4.4375 4.96875 4.4375h90.609375c2.832031 0 5.097657-2.351562 4.996094-5.183594zm0 0" fill="#0573cf"/><path d="m283.453125 504.5h-13.246094l-16.242187-445.328125h18.433594l16.050781 440.144531c.101562 2.832032-2.164063 5.183594-4.996094 5.183594zm0 0" fill="#005aaf"/><path d="m275.046875 131.910156c-7.277344-2.199218-13.488281-5.601562-18.777344-9.761718l-2.300781-62.976563h18.429688zm0 0" fill="#005aaf"/><path d="m69.980469 59.167969s-4.15625 59.175781-49.078125 72.742187l2.652344-72.742187zm0 0" fill="#003c79"/><path d="m225.976562 59.167969s4.15625 59.175781 49.078126 72.742187l-2.65625-72.742187zm0 0" fill="#003c79"/><path d="m275.058594 131.910156h-.011719c-7.277344-2.199218-13.488281-5.601562-18.777344-9.761718l-2.300781-62.976563h18.429688zm0 0" fill="#002c5d"/><path d="m279.972656 60.917969c.132813-.5625.210938-1.148438.210938-1.75v-46.667969c0-6.894531-5.605469-12.5-12.5-12.5h-239.414063c-6.890625 0-12.5 5.605469-12.5 12.5v46.667969c0 .601562.082031 1.1875.214844 1.75l-12.867187 352.824219c-.148438 4.140624 3.082031 7.617187 7.222656 7.769531 4.136718.140625 7.617187-3.082031 7.769531-7.222657l10.101563-277.019531c18.132812-7.179687 32.257812-22.273437 41.027343-44.011719 4.238281-10.5 6.335938-20.3125 7.347657-26.589843h63.890624v81.285156l-39.597656 349.046875h-85.785156l1.355469-37.210938c.152343-4.140624-3.082031-7.617187-7.222657-7.769531-4.136718-.164062-7.617187 3.082031-7.765624 7.222657l-1.4531255 39.800781c-.1210935 3.375 1.1484375 6.703125 3.4921875 9.132812 2.34375 2.429688 5.625 3.824219 9 3.824219h90.609375c6.363281 0 11.703125-4.769531 12.417969-11.089844l32.449218-286.003906 9.105469 80.246094c.46875 4.117187 4.191407 7.074218 8.296875 6.609375 4.117188-.46875 7.074219-4.183594 6.605469-8.300781l-16.507813-145.507813v-19.617187h.261719c15.019531 0 27.238281-11.925782 27.238281-26.578126v-35.089843h36.390626c1.011718 6.277343 3.109374 16.089843 7.347656 26.589843 8.769531 21.738282 22.898437 36.832032 41.03125 44.011719l13.117187 359.730469h-85.785156l-17.90625-157.816406c-.464844-4.117188-4.1875-7.078125-8.296875-6.605469-4.113281.464844-7.074219 4.179687-6.605469 8.296875l18.15625 160.03125c.714844 6.324219 6.054688 11.09375 12.421875 11.09375h90.609375c3.375 0 6.652344-1.394531 8.996094-3.824219 2.34375-2.429687 3.617187-5.757812 3.492187-9.128906zm-251.148437 59.503906 1.960937-53.753906h30.574219c-2.515625 13.644531-10.222656 41.109375-32.535156 53.753906zm58.902343-68.753906h-56.957031v-36.667969h56.957031zm80.25 50.085937c0 6.386719-5.488281 11.578125-12.238281 11.578125h-.261719v-46.664062h12.5zm25.25-50.085937h-90.5v-36.667969h90.5zm32.75 0h-17.75v-36.667969h56.957032v36.667969zm8.636719 15h30.554688l1.960937 53.742187c-22.207031-12.632812-29.964844-40.089844-32.515625-53.742187zm0 0"/><path d="m156.777344 34.394531c0 4.859375-3.941406 8.800781-8.800782 8.800781-4.859374 0-8.796874-3.941406-8.796874-8.800781s3.9375-8.796875 8.796874-8.796875c4.859376 0 8.800782 3.9375 8.800782 8.796875zm0 0"/></svg>