<svg height="512pt" viewBox="-53 0 512 512.00101" width="512pt" xmlns="http://www.w3.org/2000/svg"><path d="m342.953125 36.824219-69.542969-29.363281c-26.558594 18.972656-70.191406 17.074218-70.191406 17.074218s-43.640625 1.894532-70.199219-17.074218l-69.542969 29.363281c-9.890624 4.175781-16.9375 13.140625-18.652343 23.738281-10.425781 64.472656-45.609375 296.820312-35.507813 438.703125.210938 2.941406 2.652344 5.222656 5.601563 5.222656h50.8125c2.644531 0 4.933593-1.847656 5.488281-4.433593l6.785156-31.609376h250.421875l6.785157 31.609376c.554687 2.585937 2.84375 4.433593 5.488281 4.433593h50.8125c2.953125 0 5.394531-2.28125 5.601562-5.222656 10.101563-141.882813-25.078125-374.230469-35.507812-438.703125-1.714844-10.597656-8.761719-19.5625-18.652344-23.738281zm0 0" fill="#f3cc50"/><path d="m391.519531 504.488281h-20.011719c6.289063-145.695312-27.09375-365.972656-37.285156-429.007812-1.746094-10.816407-8.933594-19.957031-19.03125-24.222657l-67.578125-32.039062c9.042969-2.542969 18.136719-6.28125 25.796875-11.757812l69.542969 29.363281c9.894531 4.175781 16.9375 13.140625 18.660156 23.734375 10.425781 64.480468 45.605469 296.828125 35.507813 438.707031-.210938 2.945313-2.652344 5.222656-5.601563 5.222656zm0 0" fill="#eeb900"/><path d="m273.414062 7.457031c-26.566406 18.972657-70.199218 17.074219-70.199218 17.074219s-43.632813 1.898438-70.195313-17.074219c0 0-17.984375 43.679688 29.5625 67.609375 25.496094 12.828125 55.773438 12.828125 81.265625 0 47.550782-23.929687 29.566406-67.609375 29.566406-67.609375zm0 0" fill="#e8dacd"/><path d="m243.847656 75.0625c-14.664062 7.390625-30.917968 10.527344-46.933594 9.402344 5.488282-1.640625 10.859376-3.773438 16.054688-6.390625 33.671875-16.941407 37.566406-42.863281 36.035156-59.265625 8.582032-2.523438 17.136719-6.148438 24.40625-11.347656 0 0 17.988282 43.675781-29.5625 67.601562zm0 0" fill="#e5ccb7"/><path d="m122.496094 33.066406c1.515625 14.554688 9.113281 34.824219 36.710937 48.707032 13.777344 6.9375 28.890625 10.402343 44.007813 10.402343 15.113281 0 30.230468-3.46875 44.011718-10.402343 27.59375-13.882813 35.191407-34.152344 36.707032-48.707032.492187-4.71875.375-9.136718-.027344-13.019531l56.125 23.695313c7.558594 3.191406 12.851562 9.929687 14.160156 18.019531 2.179688 13.46875 5.585938 35.191406 9.445313 62.183593.589843 4.105469 4.398437 6.949219 8.5 6.371094 4.105469-.585937 6.960937-4.390625 6.371093-8.5-3.875-27.101562-7.296874-48.921875-9.488281-62.453125-2.136719-13.230469-10.789062-24.246093-23.144531-29.460937l-69.492188-29.339844c-2.28125-.980469-5.324218-.6523438-7.332031.78125-24.101562 17.210938-65.101562 15.703125-65.507812 15.683594-.21875-.007813-.4375-.007813-.652344 0-.394531.019531-38.808594 1.492187-63.195313-14.117188-2.988281-1.914062-6.011718-3.882812-9.644531-2.347656-.027343.007812-69.496093 29.339844-69.496093 29.339844-12.351563 5.214844-21.003907 16.230468-23.144532 29.460937-10.90625 67.414063-45.699218 298.414063-35.589844 440.433594.492188 6.84375 6.242188 12.203125 13.097657 12.203125h50.8125c6.144531 0 11.542969-4.359375 12.832031-10.367188l5.511719-25.675781h52.542969c4.148437 0 7.511718-3.363281 7.511718-7.511719 0-4.148437-3.363281-7.511718-7.511718-7.511718h-51.394532c-1.9375-25.449219 8.550782-103.078125 13.066406-132.753906 12.496094-72.605469.554688-172.546876.042969-176.769532-.503906-4.113281-4.242187-7.058594-8.367187-6.546875-4.117188.503907-7.050782 4.25-6.546875 8.367188.03125.25 3.101562 25.683593 4.632812 59.621093 1.402344 31.21875 1.753907 76.136719-4.578125 112.847657-.007812.050781-.015625.101562-.023437.148437-1.769531 11.640625-16.882813 112.601563-12.695313 140.675782-.03125.113281-.066406.226562-.089844.34375l-6.46875 30.109374h-47.507812c-9.589844-140.554687 24.757812-368.484374 35.550781-435.214843 1.3125-8.09375 6.605469-14.828125 14.160157-18.019531l56.125-23.695313c-.402344 3.882813-.515626 8.300781-.027344 13.019531zm146.496094-1.554687c-1.640626 15.75-11.234376 28.144531-28.519532 36.84375-23.332031 11.742187-51.183594 11.738281-74.515625 0-28.820312-14.5-30.105469-36.957031-28.222656-49.269531.480469.246093.964844.480468 1.449219.71875.363281.175781.71875.363281 1.082031.535156 3.46875 1.644531 7.121094 3.089844 10.753906 4.320312 1.828125.621094 3.636719 1.179688 5.488281 1.707032 1.847657.523437 3.742188.90625 5.582032 1.453124 3.964844 1.175782 8.148437 1.539063 12.160156 2.347657 9.5625 1.921875 19.296875 1.542969 28.96875 1.882812 4.144531.148438 8.308594.027344 12.449219-.199219 5.289062-.289062 10.566406-.816406 15.804687-1.582031 5.644532-.832031 11.347656-1.972656 16.816406-3.453125 2.800782-.753906 5.574219-1.617187 8.3125-2.578125 3.679688-1.292969 7.273438-2.769531 10.769532-4.496093.425781-.210938.855468-.414063 1.28125-.632813.53125 3.480469.824218 7.757813.339844 12.402344zm0 0"/><path d="m384.78125 167.6875c-.539062-4.113281-4.304688-7.003906-8.421875-6.476562-4.113281.535156-7.011719 4.304687-6.472656 8.421874 12.660156 97.070313 26.332031 232.382813 19.859375 327.34375h-47.511719l-6.382813-29.734374c4.566407-27.019532-10.796874-129.652344-12.582031-141.394532-.007812-.046875-.015625-.097656-.023437-.144531-5.007813-29.03125-6.589844-68.011719-4.582032-112.71875 1.523438-33.964844 4.605469-59.5 4.636719-59.753906.5-4.117188-2.429687-7.863281-6.550781-8.363281-4.105469-.515626-7.859375 2.429687-8.363281 6.542968-.515625 4.222656-12.453125 104.164063.042969 176.769532 4.511718 29.679687 15.003906 107.304687 13.066406 132.753906h-139.8125c-4.148438 0-7.507813 3.363281-7.507813 7.511718 0 4.148438 3.359375 7.511719 7.507813 7.511719h140.671875l5.511719 25.675781c1.289062 6.007813 6.6875 10.367188 12.832031 10.367188h50.816406c6.855469 0 12.605469-5.359375 13.09375-12.199219 6.855469-96.292969-7-233.753906-19.828125-332.113281zm0 0"/></svg>