<svg height="512pt" viewBox="0 -131 512.00017 512" width="512pt" xmlns="http://www.w3.org/2000/svg"><path d="m493.976562 243.066406h-464.589843c-5.804688 0-10.511719-4.707031-10.511719-10.511718v-31.890626h485.613281v31.890626c0 5.804687-4.703125 10.511718-10.511719 10.511718zm0 0" fill="#f79341"/><path d="m493.976562 243.066406h-13.9375v-42.402344h24.449219v31.890626c0 5.804687-4.703125 10.511718-10.511719 10.511718zm0 0" fill="#ef7e29"/><path d="m8.222656 195.898438c-1.148437-22.738282-4.277344-120.566407 24.832032-150.914063 1-1.039063 2.386718-1.621094 3.832031-1.621094h99.769531l178.148438 115.042969c1.09375.707031 1.871093 1.8125 2.164062 3.082031l9.007812 39.160157h-312.753906c-2.667968 0-4.863281-2.085938-5-4.75zm0 0" fill="#0573cf"/><path d="m325.976562 200.652344h-21.566406l-10.6875-33.105469c-.3125-1.355469-1.132812-2.535156-2.304687-3.285156l-187.9375-120.898438h33.175781l178.144531 115.046875c1.101563.699219 1.875 1.8125 2.164063 3.082032zm0 0" fill="#005aaf"/><path d="m136.65625 43.363281s19.125-24.0625 26.882812-33.820312c1.792969-2.253907 5.039063-2.671875 7.339844-.945313 11.859375 8.90625 45.417969 34.105469 49.160156 36.929688 23.125 17.453125 46.5 35.125 72.109376 48.792968 21.828124 11.65625 44.1875 20.101563 69.222656 22.902344 32.292968 3.609375 68.171875-2.195312 99.261718 9.140625 32.148438 11.722657 45.207032 41.4375 43.75 74.285157h-178.402343l-9.464844-41.140626zm0 0" fill="#f3cc50"/><path d="m504.382812 200.652344h-24.089843c-1.003907-51.34375-38.269531-61.554688-79.113281-62.832032-16.835938-.527343-33.738282.324219-50.476563-1.984374-27.839844-3.839844-51.496094-15.933594-75.582031-28.792969-25.601563-13.667969-48.980469-31.339844-72.101563-48.789063-3.722656-2.816406-36.484375-28.328125-48.710937-37.097656l9.230468-11.605469c1.792969-2.253906 5.042969-2.675781 7.34375-.949219 11.855469 8.902344 45.417969 34.101563 49.160157 36.925782 23.121093 17.453125 46.5 35.125 72.101562 48.789062 21.835938 11.667969 44.1875 20.105469 69.226563 22.910156 32.292968 3.605469 68.175781-2.203124 99.257812 9.132813 32.148438 11.722656 45.214844 41.441406 43.753906 74.292969zm0 0" fill="#eeb900"/><path d="m114.445312 200.664062h-101.21875c-2.667968 0-4.867187-2.082031-5-4.746093-.667968-13.214844-2.003906-51.828125 2.71875-87.789063 31.585938 4.105469 106.078126 21.320313 103.5 92.535156zm0 0" fill="#f3cc50"/><path d="m114.449219 200.664062h-14.96875c-4.695313-53.691406-56.960938-72.394531-90.042969-78.882812.421875-4.554688.921875-9.128906 1.511719-13.65625 31.578125 4.105469 106.074219 21.328125 103.5 92.539062zm0 0" fill="#eeb900"/><path d="m511.921875 199.644531c.589844-17.847656-2.925781-34.304687-10.222656-47.660156-8.433594-15.441406-21.386719-26.4375-38.496094-32.675781-21.277344-7.757813-44.226563-7.941406-66.421875-8.121094-12.089844-.097656-23.507812-.191406-34.578125-1.425781-21.746094-2.433594-42.882813-9.445313-66.519531-22.0625-21.210938-11.324219-41.210938-25.71875-60.558594-40.214844-.371094-.402344-.789062-.773437-1.257812-1.097656-.296876-.207031-.601563-.375-.914063-.53125-2.6875-2.019531-5.363281-4.039063-8.03125-6.050781l-.359375-.273438c-4.3125-3.253906-47.347656-35.566406-49.179688-36.941406-5.589843-4.195313-13.371093-3.195313-17.71875 2.273437l-24.632812 30.992188h-33.554688c-4.144531 0-7.507812 3.359375-7.507812 7.507812 0 4.148438 3.363281 7.511719 7.507812 7.511719h34.964844l175.4375 113.289062 1.71875 7.464844 4.949219 21.511719h-194.621094c-1.210937-29.644531-15.777343-53.839844-42.476562-70.304687-19.746094-12.171876-42.371094-18.125-59.949219-21.03125 3.535156-22.320313 9.386719-41.027344 18.332031-50.933594h16.253907c4.148437 0 7.511718-3.359375 7.511718-7.507813 0-4.148437-3.363281-7.511719-7.511718-7.511719h-17.199219c-3.480469 0-6.855469 1.433594-9.25 3.933594-13.285157 13.851563-20.378907 39.671875-24.039063 66.824219-.035156.179687-.074218.355469-.097656.539063-.648438 4.941406-1.183594 9.921874-1.625 14.878906-.023438.257812-.046875.519531-.070312.777344-.050782.601562-.101563 1.203124-.152344 1.804687-2.476563 29.542969-1.6171878 57.898437-.9375 71.476563.003906.070312.007812.144531.011718.210937.304688 6.027344 4.835938 10.859375 10.636719 11.722656v24.53125c0 9.9375 8.085938 18.023438 18.023438 18.023438h100.128906c4.148437 0 7.507813-3.363281 7.507813-7.511719s-3.359376-7.507812-7.507813-7.507812h-100.128906c-1.65625 0-3.003907-1.347657-3.003907-3.003907v-24.378906h470.597657v24.378906c0 1.65625-1.347657 3.003907-3.003907 3.003907h-319.738281c-4.144531 0-7.507812 3.359374-7.507812 7.507812s3.363281 7.511719 7.507812 7.511719h319.738281c9.9375 0 18.023438-8.085938 18.023438-18.023438v-31.886719c0-.347656-.03125-.6875-.078125-1.019531zm-343.835937-183.753906c8.367187 6.285156 43.5625 32.710937 47.429687 35.632813l.359375.269531c1.125.847656 2.253906 1.699219 3.382812 2.550781l-6.683593 9.699219c-2.355469 3.414062-1.496094 8.089843 1.917969 10.445312 1.300781.898438 2.789062 1.328125 4.257812 1.328125 2.382812 0 4.730469-1.136718 6.1875-3.25l6.347656-9.207031c4.75 3.527344 9.546875 7.035156 14.398438 10.488281l-7.296875 10.589844c-2.351563 3.414062-1.492188 8.089844 1.921875 10.441406 1.300781.898438 2.785156 1.328125 4.253906 1.328125 2.386719 0 4.734375-1.132812 6.191406-3.246093l7.28125-10.566407c5.25 3.527344 10.574219 6.957031 15.988282 10.234375l-6.878907 9.984375c-2.355469 3.414063-1.496093 8.089844 1.917969 10.445313 1.300781.894531 2.789062 1.328125 4.257812 1.328125 2.386719 0 4.730469-1.136719 6.1875-3.25l7.589844-11.011719c.503906.273438 1.003906.554688 1.511719.824219 25.371094 13.546875 48.226563 21.089843 71.925781 23.738281 11.839844 1.324219 24.183594 1.421875 36.121094 1.519531 20.921875.167969 42.558594.34375 61.402344 7.214844 24.203125 8.824219 38.125 30.386719 38.890625 59.71875h-164.992188l-7.671875-33.335937v-.003907l-.453125-1.972656c-.4375-1.90625-1.601562-3.566406-3.246093-4.625l-103.632813-66.921875-69.261719-44.726562zm-96.519532 119.730469c22.316406 13.761718 34.179688 33.089844 35.339844 57.519531h-91.296875c-.449219-9.90625-.949219-27.4375-.1875-47.292969.390625-9.890625 1.078125-19.710937 2.101563-29.136718 14.558593 2.472656 35.976562 7.773437 54.042968 18.910156zm0 0"/></svg>