<svg height="512pt" viewBox="0 -54 512.00002 512" width="512pt" xmlns="http://www.w3.org/2000/svg"><path d="m33.347656 7.515625h95.253906c2.765626 0 5.011719 2.246094 5.011719 5.011719v169.753906c0 16.953125 7.753907 32.972656 21.054688 43.488281l91.070312 72c22.324219 17.652344 27.65625 49.335938 12.34375 73.320313-17.703125 27.726562-55.515625 34.027344-81.253906 13.542968l-148.339844-118.082031c-21.214843-16.890625-27.101562-46.648437-13.910156-70.34375 9.023437-16.203125 13.757813-34.441406 13.757813-52.984375v-130.695312c0-2.765625 2.246093-5.011719 5.011718-5.011719zm0 0" fill="#f79341"/><path d="m258.078125 371.085938c-.863281 1.355468-1.773437 2.648437-2.738281 3.890624 2.828125-20.738281-5.179688-42.226562-22.570313-55.976562l-100.042969-79.097656c-14.601562-11.542969-23.121093-29.144532-23.121093-47.765625v-184.625h18.992187c2.765625 0 5.011719 2.246093 5.011719 5.011719v169.761718c0 16.945313 7.757813 32.972656 21.054687 43.488282l91.074219 72c22.320313 17.648437 27.652344 49.332031 12.339844 73.3125zm0 0" fill="#ef7e29"/><path d="m133.613281 79.007812h-105.277343v-66.480468c0-2.765625 2.246093-5.011719 5.011718-5.011719h95.253906c2.765626 0 5.011719 2.246094 5.011719 5.011719zm0 0" fill="#28c6db"/><path d="m133.613281 79.007812h-24.007812v-71.492187h18.996093c2.765626 0 5.011719 2.246094 5.011719 5.011719zm0 0" fill="#17b5c1"/><path d="m65.976562 303.898438c-1.679687 0-3.335937-.5625-4.679687-1.632813l-37.484375-29.835937c-24.203125-19.265626-30.851562-52.859376-15.804688-79.882813 4.1875-7.539063 7.40625-15.566406 9.5625-23.855469 1.179688-4.535156 2.039063-9.164062 2.558594-13.753906.300782-2.679688 2.019532-4.996094 4.5-6.0625 2.476563-1.066406 5.339844-.71875 7.492188.902344 27.585937 20.796875 69.59375 67.824218 40.945312 149.105468-.808594 2.292969-2.675781 4.054688-5.011718 4.722657-.683594.199219-1.382813.292969-2.078126.292969zm-33.210937-134.035157c-.203125.875-.421875 1.742188-.644531 2.609375-2.476563 9.515625-6.167969 18.730469-10.972656 27.382813-11.457032 20.574219-6.398438 46.144531 12.027343 60.8125l28.957031 23.046875c7.898438-27.722656 7.238282-53.070313-1.988281-75.46875-6.816406-16.546875-17.476562-29.269532-27.378906-38.382813zm0 0"/><path d="m65.976562 296.382812-37.480468-29.832031c-21.21875-16.890625-27.113282-46.652343-13.917969-70.347656 4.503906-8.109375 7.949219-16.710937 10.265625-25.617187 1.261719-4.855469 2.1875-9.808594 2.753906-14.804688 27.414063 20.667969 65.113282 64.742188 38.378906 140.601562zm0 0" fill="#e8dacd"/><path d="m250.398438 291.871094-91.070313-72c-11.566406-9.144532-18.199219-22.847656-18.199219-37.589844v-21.265625c0-4.152344-3.363281-7.515625-7.515625-7.515625-4.152343 0-7.519531 3.363281-7.519531 7.515625v21.265625c0 19.371094 8.714844 37.367188 23.910156 49.382812l91.070313 72.003907c19.371093 15.316406 23.960937 42.5625 10.667969 63.375-7.292969 11.425781-19.144532 19.253906-32.511719 21.484375-13.375 2.230468-27.117188-1.335938-37.722657-9.777344l-106.730468-84.964844c24.136718-74.980468-12.445313-119.898437-39.300782-141.398437.242188-3.046875.378907-6.105469.378907-9.167969v-56.691406h90.238281v29.050781c0 4.152344 3.367188 7.519531 7.519531 7.519531 4.152344 0 7.515625-3.367187 7.515625-7.519531v-103.050781c0-6.90625-5.621094-12.527344-12.527344-12.527344h-95.253906c-6.90625 0-12.527344 5.621094-12.527344 12.527344v130.691406c0 12.085938-2.007812 23.445312-6.171874 34.816406-1.828126 4.988282-4.046876 9.84375-6.636719 14.511719-8.320313 14.9375-9.996094 31.882813-5.753907 47.304687 3.429688 12.480469 10.726563 23.964844 21.550782 32.578126l148.339844 118.082031c11.210937 8.921875 25.089843 13.695312 39.238281 13.695312 3.433593 0 6.886719-.28125 10.316406-.851562 17.5625-2.929688 33.132813-13.214844 42.714844-28.222657 17.457031-27.34375 11.429687-63.136718-14.019531-83.261718zm-218.277344-119.398438c.222656-.863281.4375-1.734375.644531-2.609375 9.902344 9.113281 20.5625 21.839844 27.378906 38.386719 9.226563 22.398438 9.886719 47.742188 1.988281 75.464844l-28.957031-23.046875c-8.636719-6.875-14.335937-16.144531-16.777343-26.171875-2.761719-11.363282-1.335938-23.703125 4.746093-34.632813 2.820313-5.058593 5.234375-10.320312 7.261719-15.722656 1.4375-3.824219 2.6875-7.71875 3.714844-11.667969zm3.734375-157.4375h90.238281v56.457032h-90.238281zm0 0"/><path d="m270.980469 7.515625h95.25c2.769531 0 5.011719 2.246094 5.011719 5.011719v169.753906c0 16.953125 7.757812 32.972656 21.054687 43.488281l91.070313 72c22.324218 17.652344 27.660156 49.335938 12.34375 73.320313-17.699219 27.726562-55.515626 34.027344-81.25 13.542968l-148.339844-118.082031c-21.21875-16.890625-27.101563-46.648437-13.910156-70.34375 9.023437-16.203125 13.757812-34.441406 13.757812-52.984375v-130.695312c0-2.765625 2.246094-5.011719 5.011719-5.011719zm0 0" fill="#f79341"/><path d="m495.710938 371.085938c-.863282 1.355468-1.773438 2.648437-2.738282 3.890624 2.828125-20.738281-5.179687-42.226562-22.570312-55.976562l-100.042969-79.097656c-14.601563-11.542969-23.121094-29.144532-23.121094-47.765625v-184.625h18.992188c2.765625 0 5.011719 2.246093 5.011719 5.011719v169.761718c0 16.945313 7.757812 32.972656 21.054687 43.488282l91.074219 72c22.320312 17.648437 27.652344 49.332031 12.339844 73.3125zm0 0" fill="#ef7e29"/><path d="m371.242188 79.007812h-105.273438v-66.480468c0-2.765625 2.246094-5.011719 5.011719-5.011719h95.25c2.769531 0 5.011719 2.246094 5.011719 5.011719zm0 0" fill="#28c6db"/><path d="m371.242188 79.007812h-24.003907v-71.492187h18.992188c2.769531 0 5.011719 2.246094 5.011719 5.011719zm0 0" fill="#17b5c1"/><path d="m303.609375 303.898438c-1.683594 0-3.335937-.5625-4.683594-1.632813l-37.480469-29.835937c-24.203124-19.265626-30.851562-52.859376-15.804687-79.882813 4.1875-7.539063 7.40625-15.566406 9.5625-23.855469 1.175781-4.535156 2.039063-9.164062 2.554687-13.753906.304688-2.683594 2.023438-4.996094 4.5-6.0625 2.480469-1.066406 5.339844-.722656 7.496094.902344 27.585938 20.796875 69.589844 67.820312 40.945313 149.101562-.808594 2.292969-2.675781 4.054688-5.015625 4.726563-.683594.199219-1.378906.292969-2.074219.292969zm-33.210937-134.035157c-.207032.871094-.421876 1.742188-.644532 2.609375-2.480468 9.519532-6.171875 18.730469-10.976562 27.382813-11.457032 20.574219-6.394532 46.148437 12.03125 60.8125l28.953125 23.046875c7.902343-27.722656 7.242187-53.066406-1.988281-75.464844-6.816407-16.550781-17.476563-29.273438-27.375-38.386719zm0 0"/><path d="m303.609375 296.382812-37.484375-29.832031c-21.214844-16.886719-27.109375-46.652343-13.917969-70.34375 4.503907-8.113281 7.953125-16.714843 10.269531-25.621093 1.257813-4.851563 2.1875-9.804688 2.75-14.800782 27.417969 20.664063 65.117188 64.738282 38.382813 140.597656zm0 0" fill="#e8dacd"/><path d="m488.03125 291.871094-91.070312-72c-11.566407-9.144532-18.203126-22.847656-18.203126-37.589844v-169.753906c0-6.90625-5.617187-12.527344-12.527343-12.527344h-37.398438c-4.152343 0-7.519531 3.363281-7.519531 7.515625s3.367188 7.519531 7.519531 7.519531h34.894531v56.457032h-90.238281v-56.457032h8.238281c4.152344 0 7.515626-3.367187 7.515626-7.519531s-3.363282-7.515625-7.515626-7.515625h-10.746093c-6.90625 0-12.527344 5.621094-12.527344 12.527344v130.691406c0 11.175781-2.140625 23.660156-6.058594 34.496094-1.847656 5.101562-4.105469 10.066406-6.753906 14.832031-8.464844 15.203125-10.0625 32.480469-5.535156 48.121094 3.519531 12.164062 10.746093 23.335937 21.332031 31.761719l148.339844 118.082031c11.210937 8.921875 25.09375 13.695312 39.242187 13.695312 3.433594 0 6.882813-.28125 10.316407-.851562 17.5625-2.929688 33.128906-13.214844 42.710937-28.222657 17.457031-27.34375 11.433594-63.136718-14.015625-83.261718zm-218.277344-119.398438c.226563-.867187.4375-1.734375.644532-2.609375 9.902343 9.113281 20.558593 21.835938 27.375 38.386719 9.230468 22.398438 9.890624 47.742188 1.988281 75.464844l-28.953125-23.046875c-8.96875-7.136719-14.757813-16.859375-17.03125-27.332031-2.394532-11.039063-.878906-22.914063 5-33.472657 2.996094-5.375 5.550781-10.976562 7.648437-16.738281 1.277344-3.5 2.390625-7.054688 3.328125-10.652344zm219.621094 194.570313c-7.292969 11.425781-19.140625 19.253906-32.511719 21.484375-13.371093 2.230468-27.117187-1.335938-37.722656-9.777344l-106.734375-84.964844c24.136719-74.980468-12.441406-119.894531-39.296875-141.394531.242187-3.046875.378906-6.105469.378906-9.167969v-56.695312h90.238281v95.753906c0 19.371094 8.714844 37.371094 23.910157 49.382812l91.070312 72.003907c19.371094 15.316406 23.957031 42.5625 10.667969 63.375zm0 0"/></svg>