<svg height="512pt" viewBox="0 -96 512.00083 512" width="512pt" xmlns="http://www.w3.org/2000/svg"><path d="m261.632812 64.175781h-253.738281v77.539063l206.195313 171.5625h84.222656l206.195312-171.5625v-77.539063zm0 0" fill="#f79341"/><path d="m504.511719 141.707031-206.203125 171.570313 8.207031-36.003906 159.207031-133.65625zm0 0" fill="#ef7e29"/><path d="m504.507812 64.175781h-496.613281v-47.117187c0-5.285156 4.28125-9.566406 9.566407-9.566406h477.480468c5.285156 0 9.566406 4.28125 9.566406 9.566406zm0 0" fill="#e8dacd"/><path d="m504.507812 64.175781h-26.113281v-56.683593h16.546875c5.285156 0 9.566406 4.28125 9.566406 9.566406zm0 0" fill="#e5ccb7"/><path d="m7.894531 141.714844 206.199219 171.5625-10.207031-44.789063c-15.964844-70.070312-76.625-120.9375-148.402344-124.449219zm0 0" fill="#e8dacd"/><path d="m504.507812 141.714844-206.195312 171.5625 10.203125-44.789063c15.964844-70.070312 76.625-120.9375 148.402344-124.449219zm0 0" fill="#e8dacd"/><path d="m504.511719 141.707031-206.203125 171.570313 8.207031-36.003906 159.207031-133.65625zm0 0" fill="#e5ccb7"/><path d="m494.941406 0h-372.234375c-4.136719 0-7.488281 3.351562-7.488281 7.492188 0 4.136718 3.351562 7.488281 7.488281 7.488281h372.234375c1.144532 0 2.078125.933593 2.078125 2.078125v39.628906h-481.636719v-39.628906c0-1.144532.933594-2.078125 2.078126-2.078125h58.972656c4.136718 0 7.488281-3.351563 7.488281-7.488281 0-4.140626-3.351563-7.492188-7.488281-7.492188h-58.972656c-9.40625 0-17.058594 7.652344-17.058594 17.058594v109.300781c0 7.765625-2.265625 16.132813 3.953125 22.15625 6.65625 6.445313 14.480469 12.046875 21.617187 17.984375 18.792969 15.636719 37.589844 31.273438 56.382813 46.914062 21.761719 18.105469 43.523437 36.210938 65.285156 54.320313 8.527344 7.09375 17.050781 14.183594 25.578125 21.277344 10.875 9.050781 21.367188 18.566406 32.589844 27.277343 2.257812 1.75 5.289062 4.480469 8.285156 4.480469 7.136719 0 79.933594.203125 84.1875 0 5.304688-.253906 9.6875-5.78125 13.507812-8.960937 23.058594-19.183594 46.15625-38.402344 69.277344-57.640625 21.183594-17.625 42.363282-35.246094 63.546875-52.871094 16.613281-13.824219 33.226563-27.648437 49.839844-41.46875 3.617187-3.011719 7.234375-6.019531 10.851563-9.03125 3.9375-3.273437 6.703124-4.011719 6.695312-9.386719-.023438-19.546875 0-102.375 0-124.351562 0-9.40625-7.652344-17.058594-17.058594-17.058594zm-479.558594 71.667969h174.546876c9.101562 59.953125-9.949219 103.507812-18.433594 119.265625-4.976563-5.425782-10.332032-10.558594-16.066406-15.367188-28.28125-23.714844-62.714844-37.203125-99.578126-39.007812l-40.46875-1.976563zm14.527344 78.621093 25.207032 1.230469c33.574218 1.644531 64.929687 13.925781 90.6875 35.523438 25.753906 21.597656 43.3125 50.335937 50.777343 83.105469l5.292969 23.21875zm271.304688 116.535157-8.878906 38.964843h-72.269532l-8.875-38.964843c-5.328125-23.378907-15.335937-44.882813-29.445312-63.585938 7.242187-11.761719 33.5-60.328125 23.332031-131.570312h102.246094c-10.183594 71.355469 16.175781 119.96875 23.367187 131.632812-14.082031 18.730469-24.199218 40.351563-29.476562 63.523438zm195.804687-132.246094-40.46875 1.980469c-16.222656.792968-32.191406 3.917968-47.453125 9.285156-3.902344 1.371094-5.953125 5.648438-4.582031 9.550781 1.375 3.902344 5.648437 5.953125 9.550781 4.582031 13.898438-4.886718 28.4375-7.730468 43.214844-8.457031l25.207031-1.230469-31.136719 25.910157-140.820312 117.167969 5.289062-23.21875c8.089844-35.5 28.652344-67.011719 57.898438-88.722657 3.324219-2.464843 4.015625-7.15625 1.550781-10.480469-2.464843-3.320312-7.15625-4.015624-10.480469-1.550781-8.6875 6.453125-16.667968 13.695313-23.878906 21.59375-8.492187-15.660156-27.597656-59.078125-18.441406-119.324219h174.550781zm0 0"/></svg>